<?xml version="1.0" encoding="UTF-8"?>
<svg xmlns="http://www.w3.org/2000/svg" xmlns:xlink="http://www.w3.org/1999/xlink" width="40.252pt" height="40.252pt" viewBox="0 0 40.252 40.252" version="1.1">
<g id="surface1">
<path style=" stroke:none;fill-rule:nonzero;fill:rgb(19.999695%,64.898682%,76.599121%);fill-opacity:1;" d="M 40.253906 20.125 C 40.253906 9.027344 31.222656 0 20.125 0 C 9.027344 0 0 9.027344 0 20.125 C 0 31.222656 9.027344 40.253906 20.125 40.253906 C 31.222656 40.253906 40.253906 31.222656 40.253906 20.125 M 15.140625 23.066406 C 15.140625 25.792969 13.898438 26.984375 11.308594 26.984375 C 7.507812 26.984375 7.269531 24.515625 7.269531 20.558594 C 7.269531 16.878906 7.476562 14.1875 11.394531 14.1875 C 13.964844 14.1875 15.039062 15.34375 15.039062 17.867188 L 15.039062 18.140625 L 12.808594 18.140625 L 12.808594 17.917969 C 12.808594 17 12.65625 15.855469 11.34375 15.855469 C 9.703125 15.855469 9.570312 17.578125 9.570312 20.375 C 9.570312 23.902344 9.722656 25.316406 11.273438 25.316406 C 12.757812 25.316406 12.878906 24.089844 12.878906 22.980469 L 12.878906 22.691406 L 15.140625 22.691406 Z M 18.871094 17.304688 C 18.871094 18.601562 20.269531 19.113281 21.449219 19.878906 C 23.015625 20.882812 24.054688 21.464844 24.054688 23.578125 C 24.054688 26.117188 22.46875 26.984375 20.203125 26.984375 C 17.390625 26.984375 16.402344 25.929688 16.402344 23.167969 L 16.402344 23.03125 L 18.71875 23.03125 L 18.71875 23.183594 C 18.71875 24.257812 18.855469 25.316406 20.21875 25.316406 C 21.210938 25.316406 21.753906 24.753906 21.753906 23.765625 C 21.753906 22.539062 20.664062 22.078125 19.453125 21.328125 C 17.886719 20.339844 16.574219 19.621094 16.574219 17.492188 C 16.574219 15.089844 18.175781 14.1875 20.390625 14.1875 C 22.640625 14.1875 23.898438 15.003906 23.898438 17.339844 L 23.898438 17.816406 L 21.636719 17.816406 L 21.636719 17.507812 C 21.636719 16.605469 21.429688 15.855469 20.289062 15.855469 C 19.382812 15.855469 18.871094 16.433594 18.871094 17.304688 M 33.289062 23.066406 C 33.289062 25.792969 32.046875 26.984375 29.453125 26.984375 C 25.65625 26.984375 25.417969 24.515625 25.417969 20.558594 C 25.417969 16.878906 25.621094 14.1875 29.539062 14.1875 C 32.113281 14.1875 33.1875 15.34375 33.1875 17.867188 L 33.1875 18.140625 L 30.957031 18.140625 L 30.957031 17.917969 C 30.957031 17 30.800781 15.855469 29.488281 15.855469 C 27.851562 15.855469 27.714844 17.578125 27.714844 20.375 C 27.714844 23.902344 27.871094 25.316406 29.421875 25.316406 C 30.90625 25.316406 31.023438 24.089844 31.023438 22.980469 L 31.023438 22.691406 L 33.289062 22.691406 Z M 33.289062 23.066406 "/>
</g>
</svg>
