<?xml version="1.0" encoding="UTF-8"?>
<svg xmlns="http://www.w3.org/2000/svg" xmlns:xlink="http://www.w3.org/1999/xlink" width="157.133pt" height="40.1017pt" viewBox="0 0 157.133 40.1017" version="1.1">
<defs>
<clipPath id="clip1">
  <path d="M 0 0 L 40 0 L 40 40.101562 L 0 40.101562 Z M 0 0 "/>
</clipPath>
<clipPath id="clip2">
  <path d="M 46 13 L 157.132812 13 L 157.132812 19 L 46 19 Z M 46 13 "/>
</clipPath>
</defs>
<g id="surface1">
<g clip-path="url(#clip1)" clip-rule="nonzero">
<path style=" stroke:none;fill-rule:nonzero;fill:rgb(19.999695%,64.898682%,76.599121%);fill-opacity:1;" d="M 39.09375 25.378906 C 39.554688 23.699219 39.820312 21.9375 39.820312 20.109375 C 39.820312 20.078125 39.816406 20.050781 39.816406 20.019531 C 38.527344 20.710938 37.328125 21.734375 36.140625 22.875 C 37.09375 23.765625 38.078125 24.609375 39.09375 25.378906 M 35.507812 22.273438 C 36.847656 21 38.238281 19.832031 39.78125 19.078125 C 39.6875 17.332031 39.382812 15.644531 38.871094 14.042969 C 35.3125 14.5 32.601562 15.59375 30.410156 16.992188 C 30.582031 17.171875 30.746094 17.347656 30.917969 17.53125 C 32.382812 19.109375 33.910156 20.738281 35.507812 22.273438 M 29.6875 16.21875 C 31.96875 14.730469 34.800781 13.542969 38.5 13.027344 C 35.644531 5.535156 28.410156 0.199219 19.910156 0.199219 C 9.429688 0.199219 0.867188 8.304688 0.0820312 18.582031 C 3.964844 17.230469 7.238281 15.277344 10.082031 13.566406 C 13.734375 11.367188 16.851562 9.464844 20.042969 9.546875 C 23.125 9.550781 26.210938 12.523438 29.6875 16.21875 M 0.0195312 19.734375 C 0.015625 19.859375 0 19.984375 0 20.109375 C 0 31.109375 8.914062 40.023438 19.910156 40.023438 C 27.855469 40.023438 34.695312 35.355469 37.890625 28.625 C 37.40625 28.652344 36.890625 28.671875 36.335938 28.675781 L 36.273438 28.675781 C 34.566406 28.675781 33.140625 28.058594 31.839844 27.117188 C 29.679688 29.09375 27.335938 30.675781 24.457031 30.675781 L 24.417969 30.675781 C 22.632812 30.667969 21.253906 29.589844 19.832031 28.167969 C 18.8125 28.988281 17.699219 29.511719 16.339844 29.511719 C 13.871094 29.511719 12.355469 27.886719 10.597656 26.003906 C 8.371094 23.613281 5.699219 20.761719 0.0195312 19.734375 M 30.441406 17.976562 C 30.242188 17.761719 30.046875 17.554688 29.847656 17.34375 C 28.46875 18.296875 27.304688 19.375 26.285156 20.492188 C 27.027344 21.238281 27.722656 22.019531 28.394531 22.773438 C 29.476562 23.984375 30.535156 25.15625 31.667969 26.085938 C 32.332031 25.453125 32.992188 24.78125 33.664062 24.097656 C 34.117188 23.636719 34.570312 23.175781 35.03125 22.722656 C 33.433594 21.183594 31.910156 19.550781 30.441406 17.976562 M 2.984375 18.132812 C 8.492188 16.964844 13.730469 15.972656 17.054688 16.011719 C 20.707031 16.054688 23.332031 17.722656 25.523438 19.769531 C 26.550781 18.652344 27.730469 17.554688 29.132812 16.574219 C 25.792969 13.027344 22.839844 10.199219 20.035156 10.195312 C 17.082031 10.121094 13.980469 11.976562 10.417969 14.121094 C 8.222656 15.441406 5.765625 16.898438 2.984375 18.132812 M 23.273438 24.234375 C 22.332031 25.492188 21.445312 26.660156 20.488281 27.585938 C 21.789062 28.878906 22.964844 29.789062 24.421875 29.796875 L 24.457031 29.796875 C 27.015625 29.796875 29.117188 28.410156 31.144531 26.566406 C 30.007812 25.617188 28.949219 24.449219 27.871094 23.238281 C 27.203125 22.488281 26.523438 21.730469 25.816406 21.011719 C 24.878906 22.089844 24.050781 23.191406 23.273438 24.234375 M 18.777344 27.089844 C 15.894531 24.074219 12.117188 20.152344 3.710938 19.6875 C 7.457031 21.128906 9.628906 23.417969 11.367188 25.285156 C 13.023438 27.058594 14.328125 28.457031 16.339844 28.457031 C 17.378906 28.457031 18.261719 28.058594 19.089844 27.414062 C 18.984375 27.304688 18.882812 27.199219 18.777344 27.089844 M 3.234375 18.796875 C 12.335938 19.132812 16.359375 23.292969 19.410156 26.480469 C 19.527344 26.605469 19.640625 26.71875 19.753906 26.839844 C 20.640625 25.984375 21.488281 24.859375 22.429688 23.601562 C 23.214844 22.554688 24.066406 21.414062 25.058594 20.285156 C 22.945312 18.304688 20.496094 16.753906 17.046875 16.714844 C 13.816406 16.679688 8.664062 17.648438 3.234375 18.796875 M 36.328125 27.972656 C 37.035156 27.96875 37.65625 27.933594 38.242188 27.890625 C 38.496094 27.296875 38.71875 26.6875 38.914062 26.066406 C 37.792969 25.226562 36.710938 24.300781 35.664062 23.324219 C 35.207031 23.777344 34.75 24.242188 34.289062 24.714844 C 33.660156 25.355469 33.023438 26 32.375 26.621094 C 33.542969 27.4375 34.804688 27.972656 36.277344 27.972656 C 36.292969 27.972656 36.3125 27.972656 36.328125 27.972656 "/>
</g>
<path style=" stroke:none;fill-rule:nonzero;fill:rgb(19.999695%,64.898682%,76.599121%);fill-opacity:1;" d="M 52.273438 36.34375 L 52.273438 31.285156 L 51.226562 31.285156 L 49.601562 35.5625 L 47.933594 31.285156 L 46.886719 31.285156 L 46.886719 36.34375 L 47.480469 36.34375 L 47.480469 31.78125 L 49.273438 36.34375 L 49.875 36.34375 L 51.660156 31.789062 L 51.660156 36.34375 Z M 58.425781 36.34375 L 56.289062 31.285156 L 55.570312 31.285156 L 53.511719 36.34375 L 54.175781 36.34375 L 54.695312 35.007812 L 57.144531 35.007812 L 57.667969 36.34375 Z M 56.941406 34.511719 L 54.875 34.511719 C 55.210938 33.628906 55.511719 32.714844 55.890625 31.851562 Z M 63.3125 36.125 L 63.3125 33.726562 L 61.464844 33.726562 L 61.464844 34.222656 L 62.675781 34.222656 L 62.675781 35.730469 C 62.324219 35.835938 61.960938 35.886719 61.597656 35.886719 C 60.359375 35.886719 59.855469 34.867188 59.855469 33.761719 C 59.855469 32.753906 60.296875 31.703125 61.457031 31.703125 C 62.058594 31.703125 62.488281 31.992188 62.585938 32.605469 L 63.269531 32.605469 C 63.1875 31.605469 62.410156 31.179688 61.484375 31.179688 C 59.945312 31.179688 59.148438 32.363281 59.148438 33.796875 C 59.148438 35.316406 59.988281 36.402344 61.578125 36.402344 C 62.164062 36.402344 62.746094 36.277344 63.3125 36.125 M 69.183594 33.796875 C 69.183594 32.769531 68.871094 31.894531 67.90625 31.496094 C 67.5 31.328125 66.945312 31.285156 66.503906 31.285156 L 65.019531 31.285156 L 65.019531 36.34375 L 66.238281 36.34375 C 66.519531 36.34375 66.8125 36.34375 67.09375 36.316406 C 68.542969 36.171875 69.183594 35.183594 69.183594 33.796875 M 68.5 33.796875 C 68.5 35.121094 67.96875 35.835938 66.589844 35.835938 L 65.675781 35.835938 L 65.675781 31.789062 L 66.460938 31.789062 C 66.902344 31.789062 67.402344 31.816406 67.777344 32.089844 C 68.332031 32.488281 68.5 33.152344 68.5 33.796875 M 73.921875 36.34375 L 73.921875 35.835938 L 71.335938 35.835938 L 71.335938 33.984375 L 73.71875 33.984375 L 73.71875 33.476562 L 71.335938 33.476562 L 71.335938 31.796875 L 73.824219 31.796875 L 73.824219 31.285156 L 70.6875 31.285156 L 70.6875 36.34375 Z M 78.910156 34.9375 C 78.910156 34.183594 78.453125 33.824219 77.761719 33.699219 C 78.34375 33.546875 78.707031 33.179688 78.707031 32.550781 C 78.707031 31.632812 77.886719 31.285156 77.09375 31.285156 L 75.3125 31.285156 L 75.3125 36.34375 L 77.011719 36.34375 C 77.945312 36.34375 78.910156 36.082031 78.910156 34.9375 M 78.027344 32.605469 C 78.027344 33.273438 77.523438 33.488281 76.933594 33.488281 L 75.953125 33.488281 L 75.953125 31.800781 L 77.03125 31.800781 C 77.566406 31.800781 78.027344 32.019531 78.027344 32.605469 M 78.222656 34.910156 C 78.222656 35.757812 77.496094 35.828125 76.824219 35.828125 L 75.953125 35.828125 L 75.953125 33.972656 L 77.027344 33.972656 C 77.683594 33.972656 78.222656 34.160156 78.222656 34.910156 M 84.410156 34.414062 L 84.410156 31.285156 L 83.746094 31.285156 L 83.746094 34.296875 C 83.746094 34.597656 83.742188 34.902344 83.621094 35.183594 C 83.410156 35.679688 82.90625 35.910156 82.386719 35.910156 C 81.949219 35.910156 81.492188 35.75 81.246094 35.367188 C 81.042969 35.050781 81.039062 34.671875 81.039062 34.308594 L 81.039062 31.285156 L 80.351562 31.285156 L 80.351562 34.398438 C 80.351562 35.785156 81.039062 36.4375 82.382812 36.4375 C 83.683594 36.4375 84.410156 35.710938 84.410156 34.414062 M 89.789062 36.34375 C 89.699219 36.214844 89.65625 36.046875 89.621094 35.855469 C 89.550781 35.472656 89.542969 35.113281 89.507812 34.777344 C 89.453125 34.230469 89.292969 33.867188 88.648438 33.726562 C 89.257812 33.558594 89.65625 33.203125 89.65625 32.53125 C 89.65625 31.535156 88.78125 31.285156 87.957031 31.285156 L 86.152344 31.285156 L 86.152344 36.34375 L 86.808594 36.34375 L 86.808594 34 L 87.886719 34 C 88.734375 34 88.773438 34.355469 88.84375 35.097656 C 88.878906 35.519531 88.886719 35.945312 89.046875 36.34375 Z M 88.984375 32.605469 C 88.984375 33.40625 88.261719 33.503906 87.625 33.503906 L 86.808594 33.503906 L 86.808594 31.789062 L 87.808594 31.789062 C 88.390625 31.789062 88.984375 31.898438 88.984375 32.605469 M 95.128906 36.125 L 95.128906 33.726562 L 93.285156 33.726562 L 93.285156 34.222656 L 94.496094 34.222656 L 94.496094 35.730469 C 94.144531 35.835938 93.78125 35.886719 93.417969 35.886719 C 92.175781 35.886719 91.671875 34.867188 91.671875 33.761719 C 91.671875 32.753906 92.113281 31.703125 93.277344 31.703125 C 93.878906 31.703125 94.304688 31.992188 94.402344 32.605469 L 95.089844 32.605469 C 95.003906 31.605469 94.230469 31.179688 93.304688 31.179688 C 91.761719 31.179688 90.964844 32.363281 90.964844 33.796875 C 90.964844 35.316406 91.804688 36.402344 93.394531 36.402344 C 93.984375 36.402344 94.566406 36.277344 95.128906 36.125 "/>
<path style=" stroke:none;fill-rule:nonzero;fill:rgb(19.999695%,64.898682%,76.599121%);fill-opacity:1;" d="M 50.125 22.800781 L 50.125 22.285156 L 46.25 22.285156 L 46.25 22.800781 L 47.859375 22.800781 L 47.859375 27.34375 L 48.507812 27.34375 L 48.507812 22.800781 Z M 54.59375 27.34375 L 54.59375 26.835938 L 52.011719 26.835938 L 52.011719 24.988281 L 54.390625 24.988281 L 54.390625 24.476562 L 52.011719 24.476562 L 52.011719 22.796875 L 54.496094 22.796875 L 54.496094 22.285156 L 51.363281 22.285156 L 51.363281 27.34375 Z M 59.78125 25.988281 L 59.074219 25.988281 C 59.039062 26.519531 58.597656 26.882812 57.945312 26.882812 C 56.777344 26.882812 56.40625 25.828125 56.40625 24.832031 C 56.40625 23.859375 56.828125 22.738281 57.96875 22.738281 C 58.507812 22.738281 58.996094 23.003906 59.054688 23.585938 L 59.746094 23.585938 C 59.71875 22.628906 58.816406 22.199219 57.972656 22.199219 C 56.457031 22.199219 55.714844 23.480469 55.714844 24.859375 C 55.714844 26.289062 56.371094 27.421875 57.933594 27.421875 C 58.886719 27.421875 59.65625 27.042969 59.78125 25.988281 M 65.15625 27.34375 L 65.15625 22.285156 L 64.5 22.285156 L 64.5 24.492188 L 61.882812 24.492188 L 61.882812 22.285156 L 61.222656 22.285156 L 61.222656 27.34375 L 61.882812 27.34375 L 61.882812 25.007812 L 64.5 25.007812 L 64.5 27.34375 Z M 70.917969 27.34375 L 70.917969 22.285156 L 70.324219 22.285156 L 70.324219 26.6875 L 67.8125 22.285156 L 66.929688 22.285156 L 66.929688 27.34375 L 67.523438 27.34375 L 67.523438 22.957031 L 70.039062 27.34375 Z M 73.335938 22.285156 L 72.679688 22.285156 L 72.679688 27.34375 L 73.335938 27.34375 Z M 78.890625 25.988281 L 78.183594 25.988281 C 78.148438 26.519531 77.707031 26.882812 77.058594 26.882812 C 75.886719 26.882812 75.519531 25.828125 75.519531 24.832031 C 75.519531 23.859375 75.9375 22.738281 77.078125 22.738281 C 77.617188 22.738281 78.109375 23.003906 78.164062 23.585938 L 78.855469 23.585938 C 78.828125 22.628906 77.925781 22.199219 77.085938 22.199219 C 75.566406 22.199219 74.824219 23.480469 74.824219 24.859375 C 74.824219 26.289062 75.484375 27.421875 77.042969 27.421875 C 77.996094 27.421875 78.765625 27.042969 78.890625 25.988281 M 84.660156 27.34375 L 82.527344 22.285156 L 81.804688 22.285156 L 79.746094 27.34375 L 80.410156 27.34375 L 80.929688 26.007812 L 83.378906 26.007812 L 83.90625 27.34375 Z M 83.175781 25.511719 L 81.113281 25.511719 C 81.449219 24.628906 81.75 23.710938 82.125 22.851562 Z M 89.035156 27.34375 L 89.035156 26.835938 L 86.550781 26.835938 L 86.550781 22.285156 L 85.894531 22.285156 L 85.894531 27.34375 Z M 95.980469 25.929688 C 95.980469 25.023438 95.253906 24.769531 94.53125 24.53125 C 94.222656 24.425781 93.832031 24.320312 93.542969 24.167969 C 93.277344 24.019531 93.097656 23.832031 93.097656 23.542969 C 93.097656 22.941406 93.675781 22.703125 94.203125 22.703125 C 94.734375 22.703125 95.15625 22.902344 95.210938 23.488281 L 95.875 23.488281 C 95.863281 22.515625 95.042969 22.207031 94.210938 22.207031 C 93.335938 22.207031 92.433594 22.597656 92.433594 23.601562 C 92.433594 24.476562 93.152344 24.75 93.875 24.972656 C 94.195312 25.070312 94.566406 25.167969 94.863281 25.328125 C 95.128906 25.476562 95.308594 25.6875 95.308594 26.007812 C 95.308594 26.652344 94.664062 26.90625 94.105469 26.90625 C 93.507812 26.90625 93.003906 26.625 92.96875 25.980469 L 92.292969 25.988281 C 92.363281 27.023438 93.136719 27.414062 94.082031 27.414062 C 95.007812 27.414062 95.980469 26.996094 95.980469 25.929688 M 101.316406 22.269531 L 100.589844 22.269531 L 99.0625 24.691406 L 97.507812 22.269531 L 96.730469 22.269531 L 98.699219 25.222656 L 98.699219 27.34375 L 99.355469 27.34375 L 99.355469 25.253906 Z M 105.710938 25.929688 C 105.710938 25.023438 104.984375 24.769531 104.261719 24.53125 C 103.953125 24.425781 103.5625 24.320312 103.273438 24.167969 C 103.007812 24.019531 102.824219 23.832031 102.824219 23.542969 C 102.824219 22.941406 103.40625 22.703125 103.933594 22.703125 C 104.464844 22.703125 104.882812 22.902344 104.941406 23.488281 L 105.605469 23.488281 C 105.589844 22.515625 104.773438 22.207031 103.941406 22.207031 C 103.0625 22.207031 102.164062 22.597656 102.164062 23.601562 C 102.164062 24.476562 102.882812 24.75 103.601562 24.972656 C 103.925781 25.070312 104.296875 25.167969 104.589844 25.328125 C 104.855469 25.476562 105.039062 25.6875 105.039062 26.007812 C 105.039062 26.652344 104.394531 26.90625 103.832031 26.90625 C 103.238281 26.90625 102.734375 26.625 102.699219 25.980469 L 102.023438 25.988281 C 102.09375 27.023438 102.867188 27.414062 103.8125 27.414062 C 104.738281 27.414062 105.710938 26.996094 105.710938 25.929688 M 110.546875 22.800781 L 110.546875 22.285156 L 106.667969 22.285156 L 106.667969 22.800781 L 108.28125 22.800781 L 108.28125 27.34375 L 108.929688 27.34375 L 108.929688 22.800781 Z M 115.015625 27.34375 L 115.015625 26.835938 L 112.433594 26.835938 L 112.433594 24.988281 L 114.8125 24.988281 L 114.8125 24.476562 L 112.433594 24.476562 L 112.433594 22.796875 L 114.917969 22.796875 L 114.917969 22.285156 L 111.78125 22.285156 L 111.78125 27.34375 Z M 121.796875 27.34375 L 121.796875 22.285156 L 120.746094 22.285156 L 119.121094 26.5625 L 117.457031 22.285156 L 116.40625 22.285156 L 116.40625 27.34375 L 117 27.34375 L 117 22.78125 L 118.792969 27.34375 L 119.394531 27.34375 L 121.179688 22.789062 L 121.179688 27.34375 Z M 126.980469 25.929688 C 126.980469 25.023438 126.25 24.769531 125.53125 24.53125 C 125.222656 24.425781 124.832031 24.320312 124.542969 24.167969 C 124.277344 24.019531 124.09375 23.832031 124.09375 23.542969 C 124.09375 22.941406 124.675781 22.703125 125.203125 22.703125 C 125.734375 22.703125 126.152344 22.902344 126.210938 23.488281 L 126.875 23.488281 C 126.859375 22.515625 126.042969 22.207031 125.207031 22.207031 C 124.332031 22.207031 123.429688 22.597656 123.429688 23.601562 C 123.429688 24.476562 124.152344 24.75 124.871094 24.972656 C 125.195312 25.070312 125.566406 25.167969 125.859375 25.328125 C 126.125 25.476562 126.308594 25.6875 126.308594 26.007812 C 126.308594 26.652344 125.664062 26.90625 125.105469 26.90625 C 124.507812 26.90625 124.003906 26.625 123.96875 25.980469 L 123.292969 25.988281 C 123.363281 27.023438 124.136719 27.414062 125.082031 27.414062 C 126.007812 27.414062 126.980469 26.996094 126.980469 25.929688 "/>
<g clip-path="url(#clip2)" clip-rule="nonzero">
<path style=" stroke:none;fill-rule:nonzero;fill:rgb(19.999695%,64.898682%,76.599121%);fill-opacity:1;" d="M 49.910156 13.796875 L 49.910156 13.285156 L 46.886719 13.285156 L 46.886719 18.34375 L 47.535156 18.34375 L 47.535156 15.992188 L 49.796875 15.992188 L 49.796875 15.488281 L 47.535156 15.488281 L 47.535156 13.796875 Z M 55.589844 15.777344 C 55.589844 14.300781 54.914062 13.179688 53.308594 13.179688 C 51.75 13.179688 51.019531 14.382812 51.019531 15.8125 C 51.019531 17.269531 51.714844 18.429688 53.300781 18.429688 C 54.898438 18.429688 55.589844 17.234375 55.589844 15.777344 M 54.898438 15.796875 C 54.898438 16.828125 54.5 17.914062 53.300781 17.914062 C 52.105469 17.914062 51.714844 16.820312 51.714844 15.796875 C 51.714844 14.78125 52.121094 13.703125 53.300781 13.703125 C 54.519531 13.703125 54.898438 14.753906 54.898438 15.796875 M 60.742188 18.34375 C 60.652344 18.214844 60.609375 18.046875 60.574219 17.855469 C 60.503906 17.472656 60.5 17.113281 60.464844 16.777344 C 60.40625 16.230469 60.246094 15.867188 59.605469 15.726562 C 60.210938 15.558594 60.609375 15.203125 60.609375 14.53125 C 60.609375 13.535156 59.738281 13.285156 58.910156 13.285156 L 57.105469 13.285156 L 57.105469 18.34375 L 57.761719 18.34375 L 57.761719 16 L 58.839844 16 C 59.6875 16 59.730469 16.355469 59.800781 17.097656 C 59.835938 17.519531 59.839844 17.945312 60.003906 18.34375 Z M 59.941406 14.605469 C 59.941406 15.40625 59.21875 15.503906 58.582031 15.503906 L 57.761719 15.503906 L 57.761719 13.789062 L 58.761719 13.789062 C 59.34375 13.789062 59.941406 13.898438 59.941406 14.605469 M 68.714844 15.796875 C 68.714844 14.769531 68.402344 13.894531 67.4375 13.496094 C 67.03125 13.328125 66.476562 13.285156 66.035156 13.285156 L 64.550781 13.285156 L 64.550781 18.34375 L 65.769531 18.34375 C 66.050781 18.34375 66.34375 18.34375 66.625 18.316406 C 68.074219 18.171875 68.714844 17.183594 68.714844 15.796875 M 68.03125 15.796875 C 68.03125 17.121094 67.5 17.835938 66.121094 17.835938 L 65.210938 17.835938 L 65.210938 13.789062 L 65.992188 13.789062 C 66.433594 13.789062 66.933594 13.816406 67.3125 14.089844 C 67.863281 14.488281 68.03125 15.152344 68.03125 15.796875 M 73.875 13.269531 L 73.144531 13.269531 L 71.621094 15.691406 L 70.066406 13.269531 L 69.289062 13.269531 L 71.257812 16.226562 L 71.257812 18.34375 L 71.914062 18.34375 L 71.914062 16.253906 Z M 79.027344 18.34375 L 79.027344 13.285156 L 78.429688 13.285156 L 78.429688 17.6875 L 75.917969 13.285156 L 75.035156 13.285156 L 75.035156 18.34375 L 75.628906 18.34375 L 75.628906 13.957031 L 78.144531 18.34375 Z M 85.160156 18.34375 L 83.023438 13.285156 L 82.304688 13.285156 L 80.246094 18.34375 L 80.910156 18.34375 L 81.429688 17.007812 L 83.878906 17.007812 L 84.402344 18.34375 Z M 83.675781 16.511719 L 81.609375 16.511719 C 81.945312 15.628906 82.246094 14.714844 82.625 13.851562 Z M 91.78125 18.34375 L 91.78125 13.285156 L 90.734375 13.285156 L 89.109375 17.5625 L 87.441406 13.285156 L 86.394531 13.285156 L 86.394531 18.34375 L 86.988281 18.34375 L 86.988281 13.78125 L 88.78125 18.34375 L 89.382812 18.34375 L 91.167969 13.789062 L 91.167969 18.34375 Z M 94.214844 13.285156 L 93.558594 13.285156 L 93.558594 18.34375 L 94.214844 18.34375 Z M 99.773438 16.988281 L 99.066406 16.988281 C 99.03125 17.519531 98.589844 17.882812 97.9375 17.882812 C 96.769531 17.882812 96.398438 16.828125 96.398438 15.832031 C 96.398438 14.859375 96.816406 13.738281 97.960938 13.738281 C 98.5 13.738281 98.988281 14.003906 99.042969 14.585938 L 99.738281 14.585938 C 99.707031 13.628906 98.804688 13.199219 97.964844 13.199219 C 96.445312 13.199219 95.707031 14.480469 95.707031 15.859375 C 95.707031 17.289062 96.363281 18.421875 97.925781 18.421875 C 98.875 18.421875 99.644531 18.046875 99.773438 16.988281 M 104.691406 16.933594 C 104.691406 16.019531 103.964844 15.769531 103.242188 15.53125 C 102.933594 15.425781 102.542969 15.320312 102.253906 15.167969 C 101.988281 15.019531 101.804688 14.832031 101.804688 14.542969 C 101.804688 13.941406 102.386719 13.703125 102.914062 13.703125 C 103.445312 13.703125 103.867188 13.898438 103.921875 14.488281 L 104.585938 14.488281 C 104.574219 13.515625 103.753906 13.207031 102.921875 13.207031 C 102.042969 13.207031 101.144531 13.597656 101.144531 14.601562 C 101.144531 15.476562 101.863281 15.75 102.585938 15.972656 C 102.90625 16.070312 103.277344 16.167969 103.570312 16.332031 C 103.839844 16.476562 104.019531 16.6875 104.019531 17.007812 C 104.019531 17.652344 103.375 17.90625 102.816406 17.90625 C 102.21875 17.90625 101.714844 17.625 101.679688 16.980469 L 101.003906 16.988281 C 101.074219 18.023438 101.847656 18.414062 102.792969 18.414062 C 103.71875 18.414062 104.691406 17.996094 104.691406 16.933594 M 112.726562 15.777344 C 112.726562 14.300781 112.050781 13.179688 110.445312 13.179688 C 108.882812 13.179688 108.15625 14.382812 108.15625 15.8125 C 108.15625 17.269531 108.847656 18.429688 110.4375 18.429688 C 112.035156 18.429688 112.726562 17.234375 112.726562 15.777344 M 112.035156 15.796875 C 112.035156 16.828125 111.636719 17.914062 110.4375 17.914062 C 109.242188 17.914062 108.847656 16.820312 108.847656 15.796875 C 108.847656 14.78125 109.253906 13.703125 110.4375 13.703125 C 111.65625 13.703125 112.035156 14.753906 112.035156 15.796875 M 117.261719 13.796875 L 117.261719 13.285156 L 114.242188 13.285156 L 114.242188 18.34375 L 114.890625 18.34375 L 114.890625 15.992188 L 117.152344 15.992188 L 117.152344 15.488281 L 114.890625 15.488281 L 114.890625 13.796875 Z M 124.664062 16.988281 L 123.957031 16.988281 C 123.921875 17.519531 123.480469 17.882812 122.828125 17.882812 C 121.660156 17.882812 121.289062 16.828125 121.289062 15.832031 C 121.289062 14.859375 121.707031 13.738281 122.851562 13.738281 C 123.390625 13.738281 123.878906 14.003906 123.9375 14.585938 L 124.628906 14.585938 C 124.597656 13.628906 123.699219 13.199219 122.859375 13.199219 C 121.335938 13.199219 120.597656 14.480469 120.597656 15.859375 C 120.597656 17.289062 121.253906 18.421875 122.816406 18.421875 C 123.769531 18.421875 124.535156 18.046875 124.664062 16.988281 M 130.386719 15.777344 C 130.386719 14.300781 129.707031 13.179688 128.105469 13.179688 C 126.542969 13.179688 125.816406 14.382812 125.816406 15.8125 C 125.816406 17.269531 126.507812 18.429688 128.097656 18.429688 C 129.695312 18.429688 130.386719 17.234375 130.386719 15.777344 M 129.695312 15.796875 C 129.695312 16.828125 129.292969 17.914062 128.097656 17.914062 C 126.902344 17.914062 126.507812 16.820312 126.507812 15.796875 C 126.507812 14.78125 126.914062 13.703125 128.097656 13.703125 C 129.316406 13.703125 129.695312 14.753906 129.695312 15.796875 M 137.289062 18.34375 L 137.289062 13.285156 L 136.238281 13.285156 L 134.617188 17.5625 L 132.949219 13.285156 L 131.898438 13.285156 L 131.898438 18.34375 L 132.492188 18.34375 L 132.492188 13.78125 L 134.285156 18.34375 L 134.886719 18.34375 L 136.671875 13.789062 L 136.671875 18.34375 Z M 142.507812 14.738281 C 142.507812 14.265625 142.3125 13.800781 141.902344 13.535156 C 141.523438 13.292969 141.074219 13.285156 140.640625 13.285156 L 139.078125 13.285156 L 139.078125 18.34375 L 139.738281 18.34375 L 139.738281 16.183594 L 140.667969 16.183594 C 140.996094 16.183594 141.320312 16.148438 141.585938 16.050781 C 142.164062 15.839844 142.507812 15.355469 142.507812 14.738281 M 141.824219 14.691406 C 141.824219 15.558594 141.136719 15.671875 140.429688 15.671875 L 139.738281 15.671875 L 139.738281 13.789062 L 140.617188 13.789062 C 141.269531 13.789062 141.824219 13.929688 141.824219 14.691406 M 146.988281 18.34375 L 146.988281 17.835938 L 144.503906 17.835938 L 144.503906 13.285156 L 143.847656 13.285156 L 143.847656 18.34375 Z M 151.511719 18.34375 L 151.511719 17.835938 L 148.925781 17.835938 L 148.925781 15.984375 L 151.308594 15.984375 L 151.308594 15.476562 L 148.925781 15.476562 L 148.925781 13.796875 L 151.414062 13.796875 L 151.414062 13.285156 L 148.277344 13.285156 L 148.277344 18.34375 Z M 157.132812 18.34375 L 155.242188 15.714844 L 156.964844 13.285156 L 156.210938 13.285156 L 154.835938 15.328125 L 153.445312 13.285156 L 152.632812 13.285156 L 154.417969 15.714844 L 152.554688 18.34375 L 153.320312 18.34375 L 154.832031 16.121094 L 156.355469 18.34375 Z M 157.132812 18.34375 "/>
</g>
<path style=" stroke:none;fill-rule:nonzero;fill:rgb(52.799988%,53.09906%,55.39856%);fill-opacity:1;" d="M 52.273438 9.34375 L 52.273438 4.285156 L 51.226562 4.285156 L 49.601562 8.5625 L 47.933594 4.285156 L 46.886719 4.285156 L 46.886719 9.34375 L 47.480469 9.34375 L 47.480469 4.78125 L 49.273438 9.34375 L 49.875 9.34375 L 51.660156 4.789062 L 51.660156 9.34375 Z M 58.425781 9.34375 L 56.289062 4.285156 L 55.570312 4.285156 L 53.511719 9.34375 L 54.175781 9.34375 L 54.695312 8.007812 L 57.144531 8.007812 L 57.667969 9.34375 Z M 56.941406 7.511719 L 54.875 7.511719 C 55.210938 6.628906 55.511719 5.714844 55.890625 4.851562 Z M 63.894531 9.34375 L 62.003906 6.714844 L 63.722656 4.285156 L 62.96875 4.285156 L 61.597656 6.328125 L 60.203125 4.285156 L 59.390625 4.285156 L 61.175781 6.714844 L 59.316406 9.34375 L 60.078125 9.34375 L 61.589844 7.121094 L 63.117188 9.34375 Z M 70.789062 5.738281 C 70.789062 5.265625 70.589844 4.800781 70.179688 4.535156 C 69.800781 4.292969 69.351562 4.285156 68.917969 4.285156 L 67.359375 4.285156 L 67.359375 9.34375 L 68.015625 9.34375 L 68.015625 7.183594 L 68.945312 7.183594 C 69.277344 7.183594 69.597656 7.148438 69.863281 7.050781 C 70.445312 6.839844 70.789062 6.355469 70.789062 5.738281 M 70.101562 5.691406 C 70.101562 6.558594 69.414062 6.671875 68.707031 6.671875 L 68.015625 6.671875 L 68.015625 4.789062 L 68.898438 4.789062 C 69.546875 4.789062 70.101562 4.929688 70.101562 5.691406 M 75.269531 9.34375 L 75.269531 8.835938 L 72.78125 8.835938 L 72.78125 4.285156 L 72.125 4.285156 L 72.125 9.34375 Z M 81.117188 9.34375 L 78.980469 4.285156 L 78.261719 4.285156 L 76.203125 9.34375 L 76.867188 9.34375 L 77.386719 8.007812 L 79.835938 8.007812 L 80.359375 9.34375 Z M 79.632812 7.511719 L 77.566406 7.511719 C 77.902344 6.628906 78.203125 5.714844 78.582031 4.851562 Z M 86.328125 9.34375 L 86.328125 4.285156 L 85.734375 4.285156 L 85.734375 8.6875 L 83.21875 4.285156 L 82.339844 4.285156 L 82.339844 9.34375 L 82.933594 9.34375 L 82.933594 4.957031 L 85.449219 9.34375 Z M 91.886719 7.988281 L 91.179688 7.988281 C 91.144531 8.519531 90.703125 8.882812 90.050781 8.882812 C 88.882812 8.882812 88.511719 7.828125 88.511719 6.832031 C 88.511719 5.859375 88.929688 4.738281 90.074219 4.738281 C 90.613281 4.738281 91.101562 5.003906 91.160156 5.585938 L 91.851562 5.585938 C 91.824219 4.628906 90.921875 4.199219 90.082031 4.199219 C 88.5625 4.199219 87.820312 5.480469 87.820312 6.859375 C 87.820312 8.289062 88.476562 9.421875 90.039062 9.421875 C 90.992188 9.421875 91.757812 9.046875 91.886719 7.988281 M 97.207031 9.34375 L 94.75 6.554688 L 96.96875 4.285156 L 96.128906 4.285156 L 94 6.59375 L 96.34375 9.34375 Z M 93.988281 4.285156 L 93.328125 4.285156 L 93.328125 9.34375 L 93.988281 9.34375 Z M 101.257812 4.285156 L 100.601562 4.285156 L 100.601562 9.34375 L 101.257812 9.34375 Z M 107 9.34375 L 107 4.285156 L 106.40625 4.285156 L 106.40625 8.6875 L 103.890625 4.285156 L 103.007812 4.285156 L 103.007812 9.34375 L 103.605469 9.34375 L 103.605469 4.957031 L 106.117188 9.34375 Z M 112.164062 7.933594 C 112.164062 7.019531 111.4375 6.769531 110.714844 6.53125 C 110.40625 6.425781 110.015625 6.320312 109.730469 6.167969 C 109.460938 6.019531 109.28125 5.832031 109.28125 5.542969 C 109.28125 4.941406 109.863281 4.703125 110.386719 4.703125 C 110.917969 4.703125 111.339844 4.898438 111.394531 5.488281 L 112.058594 5.488281 C 112.046875 4.515625 111.226562 4.207031 110.394531 4.207031 C 109.519531 4.207031 108.617188 4.597656 108.617188 5.601562 C 108.617188 6.476562 109.335938 6.75 110.058594 6.972656 C 110.378906 7.070312 110.75 7.167969 111.046875 7.332031 C 111.3125 7.476562 111.492188 7.6875 111.492188 8.007812 C 111.492188 8.652344 110.847656 8.90625 110.289062 8.90625 C 109.695312 8.90625 109.191406 8.625 109.15625 7.980469 L 108.476562 7.988281 C 108.546875 9.023438 109.320312 9.414062 110.269531 9.414062 C 111.191406 9.414062 112.164062 8.996094 112.164062 7.933594 M 117 4.800781 L 117 4.285156 L 113.125 4.285156 L 113.125 4.800781 L 114.734375 4.800781 L 114.734375 9.34375 L 115.382812 9.34375 L 115.382812 4.800781 Z M 118.882812 4.285156 L 118.226562 4.285156 L 118.226562 9.34375 L 118.882812 9.34375 Z M 123.980469 4.800781 L 123.980469 4.285156 L 120.101562 4.285156 L 120.101562 4.800781 L 121.710938 4.800781 L 121.710938 9.34375 L 122.363281 9.34375 L 122.363281 4.800781 Z M 129.238281 7.414062 L 129.238281 4.285156 L 128.574219 4.285156 L 128.574219 7.296875 C 128.574219 7.597656 128.570312 7.902344 128.449219 8.183594 C 128.238281 8.679688 127.734375 8.910156 127.214844 8.910156 C 126.777344 8.910156 126.320312 8.75 126.074219 8.367188 C 125.871094 8.050781 125.863281 7.671875 125.863281 7.308594 L 125.863281 4.285156 L 125.179688 4.285156 L 125.179688 7.398438 C 125.179688 8.785156 125.863281 9.4375 127.210938 9.4375 C 128.511719 9.4375 129.238281 8.710938 129.238281 7.414062 M 134.320312 4.800781 L 134.320312 4.285156 L 130.445312 4.285156 L 130.445312 4.800781 L 132.054688 4.800781 L 132.054688 9.34375 L 132.703125 9.34375 L 132.703125 4.800781 Z M 138.789062 9.34375 L 138.789062 8.835938 L 136.207031 8.835938 L 136.207031 6.984375 L 138.585938 6.984375 L 138.585938 6.476562 L 136.207031 6.476562 L 136.207031 4.796875 L 138.691406 4.796875 L 138.691406 4.285156 L 135.554688 4.285156 L 135.554688 9.34375 Z M 138.789062 9.34375 "/>
</g>
</svg>
