<?xml version="1.0" encoding="UTF-8"?>
<svg xmlns="http://www.w3.org/2000/svg" xmlns:xlink="http://www.w3.org/1999/xlink" width="39.8211pt" height="39.8211pt" viewBox="0 0 39.8211 39.8211" version="1.1">
<defs>
<clipPath id="clip1">
  <path d="M 0 0 L 39.820312 0 L 39.820312 39.820312 L 0 39.820312 Z M 0 0 "/>
</clipPath>
</defs>
<g id="surface1">
<g clip-path="url(#clip1)" clip-rule="nonzero">
<path style=" stroke:none;fill-rule:nonzero;fill:rgb(19.999695%,64.898682%,76.599121%);fill-opacity:1;" d="M 39.09375 25.179688 C 39.554688 23.5 39.820312 21.738281 39.820312 19.910156 C 39.820312 19.878906 39.816406 19.847656 39.816406 19.816406 C 38.527344 20.511719 37.328125 21.535156 36.140625 22.675781 C 37.09375 23.566406 38.078125 24.40625 39.09375 25.179688 M 35.507812 22.074219 C 36.847656 20.800781 38.238281 19.632812 39.78125 18.878906 C 39.6875 17.132812 39.382812 15.441406 38.871094 13.84375 C 35.3125 14.296875 32.601562 15.390625 30.410156 16.789062 C 30.582031 16.972656 30.746094 17.148438 30.917969 17.332031 C 32.382812 18.910156 33.910156 20.539062 35.507812 22.074219 M 29.6875 16.019531 C 31.96875 14.53125 34.800781 13.339844 38.5 12.828125 C 35.644531 5.332031 28.410156 0 19.910156 0 C 9.429688 0 0.867188 8.101562 0.0820312 18.382812 C 3.964844 17.027344 7.238281 15.074219 10.082031 13.363281 C 13.734375 11.167969 16.851562 9.261719 20.042969 9.347656 C 23.125 9.347656 26.210938 12.320312 29.6875 16.019531 M 0.0195312 19.535156 C 0.015625 19.660156 0 19.785156 0 19.910156 C 0 30.90625 8.914062 39.820312 19.910156 39.820312 C 27.855469 39.820312 34.695312 35.15625 37.890625 28.421875 C 37.40625 28.453125 36.890625 28.46875 36.335938 28.472656 L 36.273438 28.472656 C 34.566406 28.476562 33.140625 27.859375 31.839844 26.917969 C 29.679688 28.894531 27.335938 30.476562 24.457031 30.476562 L 24.417969 30.476562 C 22.632812 30.46875 21.253906 29.386719 19.832031 27.96875 C 18.8125 28.789062 17.699219 29.308594 16.339844 29.308594 C 13.871094 29.308594 12.355469 27.683594 10.597656 25.800781 C 8.371094 23.414062 5.699219 20.558594 0.0195312 19.535156 M 30.441406 17.777344 C 30.242188 17.558594 30.046875 17.355469 29.847656 17.140625 C 28.46875 18.097656 27.304688 19.175781 26.285156 20.289062 C 27.027344 21.039062 27.722656 21.816406 28.394531 22.574219 C 29.476562 23.785156 30.535156 24.957031 31.667969 25.886719 C 32.332031 25.253906 32.992188 24.582031 33.664062 23.898438 C 34.117188 23.4375 34.570312 22.972656 35.03125 22.519531 C 33.433594 20.984375 31.910156 19.351562 30.441406 17.777344 M 2.984375 17.929688 C 8.492188 16.765625 13.730469 15.773438 17.054688 15.808594 C 20.707031 15.855469 23.332031 17.523438 25.523438 19.566406 C 26.550781 18.449219 27.730469 17.355469 29.132812 16.375 C 25.792969 12.828125 22.839844 10 20.035156 9.996094 C 17.082031 9.921875 13.980469 11.777344 10.417969 13.921875 C 8.222656 15.242188 5.765625 16.699219 2.984375 17.929688 M 23.273438 24.035156 C 22.332031 25.292969 21.445312 26.460938 20.488281 27.386719 C 21.789062 28.675781 22.964844 29.589844 24.421875 29.597656 L 24.457031 29.597656 C 27.015625 29.597656 29.117188 28.207031 31.144531 26.367188 C 30.007812 25.414062 28.949219 24.25 27.871094 23.039062 C 27.203125 22.289062 26.523438 21.53125 25.816406 20.8125 C 24.878906 21.890625 24.050781 22.992188 23.273438 24.035156 M 18.777344 26.886719 C 15.894531 23.875 12.117188 19.953125 3.710938 19.484375 C 7.457031 20.925781 9.628906 23.21875 11.367188 25.082031 C 13.023438 26.855469 14.328125 28.257812 16.339844 28.257812 C 17.378906 28.257812 18.261719 27.859375 19.089844 27.214844 C 18.984375 27.105469 18.882812 27 18.777344 26.886719 M 3.234375 18.59375 C 12.335938 18.929688 16.359375 23.089844 19.410156 26.28125 C 19.527344 26.402344 19.640625 26.519531 19.753906 26.636719 C 20.640625 25.78125 21.488281 24.660156 22.429688 23.402344 C 23.214844 22.351562 24.066406 21.214844 25.058594 20.085938 C 22.945312 18.101562 20.496094 16.554688 17.046875 16.511719 C 13.816406 16.476562 8.664062 17.449219 3.234375 18.59375 M 36.328125 27.773438 C 37.035156 27.765625 37.65625 27.734375 38.242188 27.6875 C 38.496094 27.09375 38.71875 26.488281 38.914062 25.867188 C 37.792969 25.027344 36.710938 24.101562 35.664062 23.125 C 35.207031 23.574219 34.75 24.042969 34.289062 24.511719 C 33.660156 25.15625 33.023438 25.800781 32.375 26.421875 C 33.542969 27.238281 34.804688 27.773438 36.277344 27.773438 C 36.292969 27.773438 36.3125 27.773438 36.328125 27.773438 "/>
</g>
</g>
</svg>
